HIERARCHY
ROOT Hips
{
	OFFSET 0.000000 83.214638 0.000000
	CHANNELS 6 Xposition Yposition Zposition Xrotation Yrotation Zrotation
	JOINT Pelvis
	{
		OFFSET 0.000000 0.000000 0.000000
		CHANNELS 3 Xrotation Yrotation Zrotation
		JOINT LeftUpLeg
		{
			OFFSET 8.479700 -4.795502 -0.379100
			CHANNELS 3 Xrotation Yrotation Zrotation
			JOINT LeftLeg
			{
				OFFSET 0.024144 -32.555107 0.112900
				CHANNELS 3 Xrotation Yrotation Zrotation
				JOINT LeftFoot
				{
					OFFSET -0.024144 -32.638630 -3.012600
					CHANNELS 3 Xrotation Yrotation Zrotation
					JOINT LeftToeBase
					{
						OFFSET 0.970200 -13.225400 11.864200
						CHANNELS 3 Xrotation Yrotation Zrotation
						End Site
						{
							OFFSET 0.000000 12.319262 0.000000
						}
					}
					JOINT LFootTongue
					{
						OFFSET 1.142400 -1.059800 6.665200
						CHANNELS 3 Xrotation Yrotation Zrotation
						End Site
						{
							OFFSET 0.000000 12.319262 0.000000
						}
					}
				}
				JOINT LeftPantLeg
				{
					OFFSET 0.918482 -16.533964 -2.284700
					CHANNELS 3 Xrotation Yrotation Zrotation
					End Site
					{
						OFFSET 0.350399 24.744368 0.000000
					}
				}
			}
		}
		JOINT RightUpLeg
		{
			OFFSET -8.479700 -4.795502 -0.379100
			CHANNELS 3 Xrotation Yrotation Zrotation
			JOINT RightLeg
			{
				OFFSET -0.023144 -32.555092 0.112900
				CHANNELS 3 Xrotation Yrotation Zrotation
				JOINT RightFoot
				{
					OFFSET 0.023144 -32.638641 -3.012700
					CHANNELS 3 Xrotation Yrotation Zrotation
					JOINT RightToeBase
					{
						OFFSET -0.970200 -13.225400 11.864200
						CHANNELS 3 Xrotation Yrotation Zrotation
						End Site
						{
							OFFSET 0.000000 12.319244 0.000000
						}
					}
					JOINT RFootTongue
					{
						OFFSET -1.142200 -1.059800 6.665200
						CHANNELS 3 Xrotation Yrotation Zrotation
						End Site
						{
							OFFSET 0.000000 12.319243 0.000000
						}
					}
				}
				JOINT RightPantLeg
				{
					OFFSET -0.919482 -16.533978 -2.284800
					CHANNELS 3 Xrotation Yrotation Zrotation
					End Site
					{
						OFFSET -0.350400 24.744419 0.000000
					}
				}
			}
		}
	}
	JOINT Spine
	{
		OFFSET 0.000000 7.722000 1.166200
		CHANNELS 3 Xrotation Yrotation Zrotation
		JOINT Spine1
		{
			OFFSET 0.000000 12.024101 0.248800
			CHANNELS 3 Xrotation Yrotation Zrotation
			JOINT Spine2
			{
				OFFSET 0.000000 11.502998 -0.491200
				CHANNELS 3 Xrotation Yrotation Zrotation
				JOINT Neck
				{
					OFFSET 0.000000 18.430702 -3.123100
					CHANNELS 3 Xrotation Yrotation Zrotation
					JOINT Head
					{
						OFFSET 0.000000 9.051102 1.034000
						CHANNELS 3 Xrotation Yrotation Zrotation
						JOINT HairB
						{
							OFFSET 0.208400 24.786102 24.822300
							CHANNELS 3 Xrotation Yrotation Zrotation
							End Site
							{
								OFFSET 0.000000 32.263779 0.000000
							}
						}
						JOINT HairA
						{
							OFFSET -7.081100 24.428299 23.196600
							CHANNELS 3 Xrotation Yrotation Zrotation
							End Site
							{
								OFFSET 0.000000 32.263779 0.000000
							}
						}
						JOINT Hat
						{
							OFFSET 16.728800 15.048294 -15.439601
							CHANNELS 3 Xrotation Yrotation Zrotation
							End Site
							{
								OFFSET 0.000000 32.263779 0.000000
							}
						}
					}
				}
				JOINT LeftShoulder
				{
					OFFSET 6.197800 13.665199 -4.064700
					CHANNELS 3 Xrotation Yrotation Zrotation
					JOINT LeftArm
					{
						OFFSET 7.778100 -0.187103 -1.709300
						CHANNELS 3 Xrotation Yrotation Zrotation
						JOINT LeftForeArm
						{
							OFFSET 22.049376 0.000000 0.000000
							CHANNELS 3 Xrotation Yrotation Zrotation
							JOINT LeftHand
							{
								OFFSET 23.009392 0.000000 0.000000
								CHANNELS 3 Xrotation Yrotation Zrotation
								JOINT LeftHandThumb1
								{
									OFFSET 3.507191 -2.063065 3.133727
									CHANNELS 3 Xrotation Yrotation Zrotation
									JOINT LeftHandThumb2
									{
										OFFSET 3.101337 -1.790558 1.790558
										CHANNELS 3 Xrotation Yrotation Zrotation
										JOINT LeftHandThumb3
										{
											OFFSET 3.058640 -1.765907 1.765906
											CHANNELS 3 Xrotation Yrotation Zrotation
											End Site
											{
												OFFSET -0.415260 3.926476 -0.049563
											}
										}
									}
								}
								JOINT LeftHandIndex1
								{
									OFFSET 11.334419 -0.901459 3.706815
									CHANNELS 3 Xrotation Yrotation Zrotation
									JOINT LeftHandIndex2
									{
										OFFSET 3.283112 0.000000 0.000000
										CHANNELS 3 Xrotation Yrotation Zrotation
										JOINT LeftHandIndex3
										{
											OFFSET 3.323853 0.000000 0.000000
											CHANNELS 3 Xrotation Yrotation Zrotation
											End Site
											{
												OFFSET -1.135597 3.097809 0.402452
											}
										}
									}
								}
								JOINT LeftHandMiddle1
								{
									OFFSET 11.335861 0.000000 0.000000
									CHANNELS 3 Xrotation Yrotation Zrotation
									JOINT LeftHandMiddle2
									{
										OFFSET 3.410492 0.000000 0.000000
										CHANNELS 3 Xrotation Yrotation Zrotation
										JOINT LeftHandMiddle3
										{
											OFFSET 3.312172 0.000000 0.000000
											CHANNELS 3 Xrotation Yrotation Zrotation
											End Site
											{
												OFFSET -1.150200 3.080154 0.400270
											}
										}
									}
								}
								JOINT LeftHandRing1
								{
									OFFSET 11.514786 -0.013176 -3.003090
									CHANNELS 3 Xrotation Yrotation Zrotation
									JOINT LeftHandRing2
									{
										OFFSET 3.053307 0.000000 0.000000
										CHANNELS 3 Xrotation Yrotation Zrotation
										JOINT LeftHandRing3
										{
											OFFSET 3.295807 0.000000 0.000000
											CHANNELS 3 Xrotation Yrotation Zrotation
											End Site
											{
												OFFSET -1.281006 3.013344 0.375733
											}
										}
									}
								}
								JOINT LeftHandPinky1
								{
									OFFSET 10.518692 -0.960396 -5.730441
									CHANNELS 3 Xrotation Yrotation Zrotation
									JOINT LeftHandPinky2
									{
										OFFSET 2.861649 0.000000 0.000000
										CHANNELS 3 Xrotation Yrotation Zrotation
										JOINT LeftHandPinky3
										{
											OFFSET 2.863380 0.000000 0.000000
											CHANNELS 3 Xrotation Yrotation Zrotation
											End Site
											{
												OFFSET -0.843597 2.711159 0.369971
											}
										}
									}
								}
							}
							JOINT LSleeve
							{
								OFFSET 6.676277 -0.344902 -1.011730
								CHANNELS 3 Xrotation Yrotation Zrotation
								End Site
								{
									OFFSET 0.000000 14.885353 0.000000
								}
							}
						}
					}
				}
				JOINT RightShoulder
				{
					OFFSET -6.197800 13.665199 -4.064700
					CHANNELS 3 Xrotation Yrotation Zrotation
					JOINT RightArm
					{
						OFFSET -7.778100 -0.187103 -1.709300
						CHANNELS 3 Xrotation Yrotation Zrotation
						JOINT RightForeArm
						{
							OFFSET -22.049376 0.000000 0.000000
							CHANNELS 3 Xrotation Yrotation Zrotation
							JOINT RightHand
							{
								OFFSET -23.009392 0.000000 0.000000
								CHANNELS 3 Xrotation Yrotation Zrotation
								JOINT RightHandThumb1
								{
									OFFSET -3.507191 -2.063065 3.133727
									CHANNELS 3 Xrotation Yrotation Zrotation
									JOINT RightHandThumb2
									{
										OFFSET -3.101337 -1.790558 1.790558
										CHANNELS 3 Xrotation Yrotation Zrotation
										JOINT RightHandThumb3
										{
											OFFSET -3.058640 -1.765907 1.765906
											CHANNELS 3 Xrotation Yrotation Zrotation
											End Site
											{
												OFFSET 0.415260 3.926476 -0.049563
											}
										}
									}
								}
								JOINT RightHandIndex1
								{
									OFFSET -11.334419 -0.901459 3.706815
									CHANNELS 3 Xrotation Yrotation Zrotation
									JOINT RightHandIndex2
									{
										OFFSET -3.283112 0.000000 0.000000
										CHANNELS 3 Xrotation Yrotation Zrotation
										JOINT RightHandIndex3
										{
											OFFSET -3.323853 0.000000 0.000000
											CHANNELS 3 Xrotation Yrotation Zrotation
											End Site
											{
												OFFSET 1.135597 3.097809 0.402452
											}
										}
									}
								}
								JOINT RightHandMiddle1
								{
									OFFSET -11.335861 0.000000 0.000000
									CHANNELS 3 Xrotation Yrotation Zrotation
									JOINT RightHandMiddle2
									{
										OFFSET -3.410492 0.000000 0.000000
										CHANNELS 3 Xrotation Yrotation Zrotation
										JOINT RightHandMiddle3
										{
											OFFSET -3.312172 0.000000 0.000000
											CHANNELS 3 Xrotation Yrotation Zrotation
											End Site
											{
												OFFSET 1.150200 3.080154 0.400270
											}
										}
									}
								}
								JOINT RightHandRing1
								{
									OFFSET -11.514786 -0.013176 -3.003090
									CHANNELS 3 Xrotation Yrotation Zrotation
									JOINT RightHandRing2
									{
										OFFSET -3.053307 0.000000 0.000000
										CHANNELS 3 Xrotation Yrotation Zrotation
										JOINT RightHandRing3
										{
											OFFSET -3.295807 0.000000 0.000000
											CHANNELS 3 Xrotation Yrotation Zrotation
											End Site
											{
												OFFSET 1.281006 3.013344 0.375733
											}
										}
									}
								}
								JOINT RightHandPinky1
								{
									OFFSET -10.518692 -0.960396 -5.730441
									CHANNELS 3 Xrotation Yrotation Zrotation
									JOINT RightHandPinky2
									{
										OFFSET -2.861649 0.000000 0.000000
										CHANNELS 3 Xrotation Yrotation Zrotation
										JOINT RightHandPinky3
										{
											OFFSET -2.863380 0.000000 0.000000
											CHANNELS 3 Xrotation Yrotation Zrotation
											End Site
											{
												OFFSET 0.843597 2.711159 0.369971
											}
										}
									}
								}
							}
							JOINT RSleeve
							{
								OFFSET -6.676277 -0.344902 -1.011730
								CHANNELS 3 Xrotation Yrotation Zrotation
								End Site
								{
									OFFSET 0.000000 14.885353 0.000000
								}
							}
						}
					}
				}
				JOINT Backpack
				{
					OFFSET 0.000000 -2.471497 36.677502
					CHANNELS 3 Xrotation Yrotation Zrotation
					End Site
					{
						OFFSET 0.000000 20.427315 0.000000
					}
				}
				JOINT Hood
				{
					OFFSET 0.000000 18.754097 -10.431000
					CHANNELS 3 Xrotation Yrotation Zrotation
					JOINT Hood1
					{
						OFFSET 0.000000 -5.011002 -7.685901
						CHANNELS 3 Xrotation Yrotation Zrotation
						End Site
						{
							OFFSET 0.000000 9.175140 0.000000
						}
					}
				}
				JOINT LHoodieString
				{
					OFFSET 5.250500 16.397697 3.089900
					CHANNELS 3 Xrotation Yrotation Zrotation
					JOINT LHoodieString1
					{
						OFFSET 0.257700 -6.364304 3.694600
						CHANNELS 3 Xrotation Yrotation Zrotation
						JOINT LHoodieString2
						{
							OFFSET 0.000000 -9.643799 2.679100
							CHANNELS 3 Xrotation Yrotation Zrotation
							End Site
							{
								OFFSET 0.000000 10.009018 0.000000
							}
						}
					}
				}
				JOINT RHoodieString
				{
					OFFSET -5.250500 16.397697 3.089900
					CHANNELS 3 Xrotation Yrotation Zrotation
					JOINT RHoodieString1
					{
						OFFSET -0.257700 -6.364304 3.694600
						CHANNELS 3 Xrotation Yrotation Zrotation
						JOINT RHoodieString2
						{
							OFFSET 0.000000 -9.643799 2.679100
							CHANNELS 3 Xrotation Yrotation Zrotation
							End Site
							{
								OFFSET 0.000000 10.009018 0.000000
							}
						}
					}
				}
			}
			JOINT LBackpack_Strap
			{
				OFFSET 15.223200 -7.719803 -6.610900
				CHANNELS 3 Xrotation Yrotation Zrotation
				End Site
				{
					OFFSET 0.000000 16.040596 0.000000
				}
			}
			JOINT RBackpack_Strap
			{
				OFFSET -15.223000 -7.719803 -6.610900
				CHANNELS 3 Xrotation Yrotation Zrotation
				End Site
				{
					OFFSET 0.000000 16.040596 0.000000
				}
			}
		}
	}
	JOINT BoyFacialAnim_Joint
	{
		OFFSET 1.000000 -82.208099 -1.550900
		CHANNELS 3 Xrotation Yrotation Zrotation
		End Site
		{
			OFFSET 0.000000 30.012791 0.000000
		}
	}
}
MOTION
Frames: 4
Frame Time: 0.016667
-0.169124 73.868378 0.175018 3.016507 -58.257354 6.570140 -0.000000 0.000002 -0.000000 -35.247881 10.179402 24.280062 43.156984 -7.473714 -9.787583 -9.604457 -2.815569 -8.045327 0.000000 -0.000002 0.000000 0.000000 -0.000002 0.000000 -0.000000 0.000001 -0.000000 -32.836906 -8.277163 -25.536303 48.053362 2.410607 -7.553293 -19.169459 2.844910 20.706521 -0.000000 0.000000 0.000000 -0.000000 0.000000 0.000000 -0.000002 -0.000001 0.000001 11.191588 0.111603 -2.787679 8.434585 0.027687 -5.592316 8.457039 0.027887 -5.591866 -21.555840 25.063376 12.062733 -0.293895 25.465778 -3.209028 0.000000 0.000000 -0.000000 0.000000 0.000000 -0.000000 0.000000 0.000000 -0.000000 -6.221637 -11.503769 -4.023775 -23.062214 9.568414 -36.639645 0.046061 -43.168930 -0.011219 22.743784 -5.686012 15.979371 -1.064244 -7.954954 8.490075 2.373413 19.986126 -2.038323 -0.000001 0.000000 -0.000002 13.340871 -1.006679 10.682285 -0.167589 0.303363 -31.105665 -0.000001 -0.000001 -0.000005 8.495430 -0.329554 -0.915331 0.231483 0.661193 -29.901868 0.000000 0.000000 0.000000 6.111744 3.150937 -16.210937 0.047037 0.322400 -30.125506 -0.000000 0.000001 -0.000002 -5.636032 7.709869 -13.878623 0.224357 0.276580 -46.588358 -0.000001 0.000002 0.000000 -0.000000 0.000001 0.000002 -5.488223 10.658252 2.466468 -41.473913 -26.755586 30.079050 24.955722 111.862857 -23.308768 -8.702510 12.423152 -9.801872 0.265004 10.061109 -10.888486 1.383779 -17.412867 3.016241 0.000002 0.000002 0.000001 19.443636 11.174417 -13.340203 -0.118650 -0.322728 18.035587 -0.000001 0.000002 0.000004 4.320501 2.436948 -4.811726 0.349135 -0.461245 26.890334 -0.000002 -0.000004 0.000003 -7.005599 -10.695174 5.719833 0.111879 -0.089163 26.155885 -0.000000 0.000000 -0.000001 -19.433519 -20.238242 5.987842 0.223784 -0.085810 36.844571 0.000002 -0.000001 0.000000 0.000002 -0.000002 -0.000005 0.000001 -0.000002 0.000001 0.000001 -0.000002 0.000001 0.000001 -0.000002 0.000001 0.000001 -0.000002 0.000001 0.000001 -0.000002 0.000001 0.000001 -0.000000 -0.000001 0.000001 -0.000002 0.000001 0.000001 -0.000002 0.000001 0.000001 -0.000000 -0.000001 0.000002 0.000002 0.000000 0.000002 0.000002 0.000000 -0.000000 0.000002 -0.000000 
-0.225005 73.897438 0.330467 2.500656 -58.236413 5.791749 0.000000 -0.000002 -0.000000 -34.896079 9.670463 24.388305 43.433245 -7.241553 -9.804269 -9.908011 -2.783985 -8.107043 0.000000 0.000002 0.000000 0.000000 0.000002 0.000000 0.000000 0.000002 0.000000 -32.300053 -8.744917 -25.427939 47.696280 2.646841 -7.503151 -19.126283 2.843538 20.694505 -0.000000 0.000002 0.000000 -0.000000 0.000002 0.000000 -0.000002 -0.000000 -0.000000 11.159396 0.080025 -2.846377 8.343014 -0.023366 -5.688284 8.371670 0.015603 -5.630542 -20.102592 24.801807 13.023835 -0.857427 25.691092 -3.215339 0.000001 0.000000 -0.000000 0.000001 0.000000 -0.000000 0.000001 0.000000 -0.000000 -6.221586 -11.502588 -4.090415 -23.051561 9.454041 -36.707397 0.206693 -43.116368 0.092942 22.538456 -5.934222 15.432486 -0.983728 -7.447199 8.678385 2.534445 20.452395 -1.857956 -0.000000 -0.000001 0.000000 13.342562 -1.008434 10.138460 -0.166787 0.303609 -31.649611 -0.000001 0.000002 -0.000003 8.486658 -0.324238 -1.459188 0.234603 0.662888 -30.445773 -0.000002 -0.000001 -0.000004 6.111057 3.157131 -16.754616 0.047450 0.326157 -30.669387 0.000001 -0.000001 -0.000002 -5.627376 7.708079 -14.423264 0.226476 0.278331 -47.132335 -0.000002 0.000001 -0.000002 -0.000000 -0.000000 0.000003 -5.459879 9.874462 2.586595 -40.532535 -25.915531 31.217376 24.790546 110.210785 -23.382675 -8.889539 12.458768 -8.493631 0.272605 9.991996 -10.913339 1.407701 -17.475141 2.991980 -0.000000 0.000001 0.000001 19.443710 11.174507 -13.267040 -0.118576 -0.322802 18.108981 0.000001 -0.000001 0.000002 4.319300 2.436259 -4.738283 0.349496 -0.461509 26.963705 -0.000001 -0.000000 0.000005 -7.006181 -10.695760 5.792806 0.111873 -0.089688 26.229291 -0.000002 -0.000002 0.000002 -19.433722 -20.238513 6.060289 0.224049 -0.086051 36.918016 0.000002 -0.000002 -0.000000 -0.000003 -0.000001 0.000001 0.000002 -0.000001 -0.000001 0.000002 -0.000001 -0.000001 0.000002 -0.000001 -0.000001 0.000002 -0.000001 -0.000001 0.000002 -0.000001 -0.000001 -0.000000 -0.000001 -0.000000 0.000002 -0.000001 -0.000001 0.000002 -0.000001 -0.000001 -0.000000 -0.000001 -0.000000 0.000002 0.000002 -0.000000 0.000002 0.000002 -0.000000 0.000000 -0.000002 -0.000000 
-0.411615 73.916389 0.489265 1.928257 -58.210410 4.947568 -0.000000 -0.000003 -0.000000 -34.496690 9.345855 24.694836 43.676198 -7.273811 -9.846034 -10.278058 -2.754176 -8.155448 -0.000000 0.000001 -0.000000 -0.000000 0.000001 -0.000000 0.000001 -0.000000 -0.000000 -31.627645 -9.214139 -25.236676 47.421836 2.803518 -7.466160 -19.248264 2.823285 20.689010 0.000000 -0.000002 -0.000000 0.000000 -0.000002 -0.000000 -0.000000 -0.000000 0.000000 11.071864 0.047477 -2.907316 8.093935 -0.081183 -5.786253 8.133085 -0.021285 -5.670395 -18.473601 24.513723 14.037473 -1.509213 25.960386 -3.156110 0.000000 0.000000 -0.000000 0.000000 0.000000 -0.000000 0.000000 0.000000 -0.000000 -6.237335 -11.503387 -4.274839 -23.016764 9.112623 -36.903652 0.376366 -42.965807 0.192111 22.289802 -6.181501 14.845758 -0.897578 -6.894442 8.882400 2.708437 20.960124 -1.662714 -0.000000 -0.000001 -0.000001 13.344380 -1.010282 9.546767 -0.165975 0.306038 -32.241444 -0.000000 0.000002 -0.000003 8.477201 -0.316676 -2.050863 0.237948 0.664748 -31.037664 0.000002 0.000000 -0.000002 6.110053 3.163944 -17.346117 0.047838 0.330115 -31.261223 -0.000003 0.000001 -0.000002 -5.619438 7.706695 -15.015753 0.228772 0.280232 -47.724110 -0.000002 0.000000 -0.000004 0.000000 -0.000001 0.000003 -5.454995 9.092293 2.875201 -39.552037 -24.929111 32.615253 32.279259 109.755225 -30.680066 -5.944196 12.171649 -6.772573 0.293742 9.798402 -10.982923 1.474610 -17.649521 2.924098 0.000000 0.000001 0.000001 19.444024 11.174679 -13.062131 -0.118453 -0.322978 18.314512 -0.000001 0.000001 0.000005 4.315990 2.434230 -4.532568 0.350635 -0.462259 27.169215 -0.000002 0.000001 0.000000 -7.007855 -10.697464 5.997234 0.111885 -0.091095 26.434821 -0.000000 -0.000002 0.000002 -19.434364 -20.239281 6.263183 0.224719 -0.086859 37.123533 -0.000004 -0.000001 0.000004 0.000000 -0.000001 0.000000 -0.000001 -0.000003 -0.000001 -0.000001 -0.000003 -0.000001 -0.000001 -0.000003 -0.000001 -0.000001 -0.000003 -0.000001 -0.000001 -0.000003 -0.000001 -0.000002 -0.000003 -0.000000 -0.000001 -0.000003 -0.000001 -0.000001 -0.000003 -0.000001 -0.000002 -0.000003 -0.000000 -0.000001 0.000002 -0.000000 -0.000001 0.000002 -0.000000 -0.000000 -0.000003 -0.000000 
-0.663843 73.945908 0.648272 1.334139 -58.179408 4.077884 -0.000000 -0.000002 -0.000000 -34.054183 9.161337 25.101510 43.830550 -7.459641 -9.891506 -10.645335 -2.725324 -8.190247 0.000000 0.000001 -0.000000 0.000000 0.000001 -0.000000 -0.000000 0.000004 -0.000001 -30.854341 -9.687315 -24.989801 47.123555 2.918481 -7.429621 -19.423017 2.792925 20.680363 0.000000 0.000000 0.000000 0.000000 0.000000 0.000000 0.000000 0.000000 0.000001 10.941388 0.015074 -2.968754 7.716264 -0.138317 -5.878631 7.767794 -0.077113 -5.711214 -16.813187 24.183074 14.998416 -2.116841 26.147943 -2.929926 0.000000 0.000000 -0.000000 0.000000 0.000000 -0.000000 0.000000 0.000000 -0.000000 -6.272272 -11.473024 -4.554318 -22.962497 8.580372 -37.210273 0.522219 -42.740462 0.264856 22.035025 -6.411151 14.252138 -0.807495 -6.305765 9.098582 2.892320 21.501282 -1.455677 -0.000000 0.000000 -0.000001 13.346300 -1.012336 8.916802 -0.165090 0.308698 -32.871539 -0.000002 0.000001 0.000004 8.471091 -0.308405 -2.680893 0.241579 0.666631 -31.667793 0.000001 -0.000000 -0.000002 6.108672 3.171307 -17.975943 0.048346 0.334407 -31.891311 -0.000001 0.000001 -0.000000 -5.612726 7.705894 -15.646334 0.231249 0.282262 -48.354218 0.000001 -0.000001 -0.000000 0.000001 -0.000003 0.000004 -5.464606 8.274672 3.337419 -38.620055 -23.706193 34.142873 37.232659 108.739221 -35.689733 -3.949276 11.691902 -4.741121 0.325851 9.501111 -11.089679 1.574344 -17.916681 2.815875 -0.000001 -0.000002 0.000001 19.444444 11.174871 -12.747395 -0.118166 -0.323182 18.630198 -0.000002 0.000003 0.000004 4.310950 2.431063 -4.216702 0.352341 -0.463360 27.484867 0.000000 0.000000 -0.000002 -7.005724 -10.700439 6.312109 0.111858 -0.093217 26.750438 -0.000002 0.000001 0.000002 -19.434424 -20.236070 6.577731 0.225750 -0.088101 37.439098 0.000003 0.000000 0.000002 0.000002 -0.000001 -0.000001 -0.000000 -0.000001 -0.000002 -0.000000 -0.000001 -0.000002 -0.000000 -0.000001 -0.000002 -0.000000 -0.000001 -0.000002 -0.000000 -0.000001 -0.000001 -0.000002 0.000000 -0.000000 -0.000000 -0.000001 -0.000002 -0.000000 -0.000001 -0.000001 -0.000002 0.000000 -0.000000 -0.000000 0.000001 -0.000000 -0.000000 0.000001 -0.000000 -0.000000 -0.000002 -0.000000 
